Coordinates
version=1
nRows=22
nColumns=24
inDegrees=yes

Units are S.I. units (second, meters, Newtons, ...)
Angles are in degrees.

endheader
time	pelvis_tilt	pelvis_list	pelvis_rotation	pelvis_tx	pelvis_ty	pelvis_tz	hip_flexion_r	hip_adduction_r	hip_rotation_r	knee_angle_r	ankle_angle_r	subtalar_angle_r	mtp_angle_r	hip_flexion_l	hip_adduction_l	hip_rotation_l	knee_angle_l	ankle_angle_l	subtalar_angle_l	mtp_angle_l	lumbar_extension	lumbar_bending	lumbar_rotation
      0.63500000	     23.19051915	      0.72569437	     -0.51193309	     -0.72049179	      0.95548763	      0.01560205	    -44.85730096	      1.54676782	    -10.67600350	     -0.75418120	     13.23080252	      9.60137856	     16.44852142	     -7.13984066	      3.26351107	    -19.45420740	      4.64820283	     -2.05398288	     20.07391695	     34.81578175	    -32.04440115	     -1.02013636	      4.58868151
      0.64000000	     23.25177824	      0.80120489	     -0.66113762	     -0.71446588	      0.95504065	      0.01527720	    -45.02776520	      1.28877139	    -10.57021016	     -1.29302657	     13.27190941	      9.65728409	     16.43927919	     -7.21063263	      3.37257429	    -19.34314552	      4.18334480	     -2.41113809	     19.38641961	     34.87938948	    -32.05088206	     -1.19939790	      4.58220292
      0.64500000	     23.28593013	      0.88470543	     -0.78773165	     -0.70844874	      0.95462451	      0.01492887	    -45.14601710	      1.03879624	    -10.45509244	     -1.87170217	     13.24641254	      9.60159539	     16.59330670	     -7.23752744	      3.47813557	    -19.17189816	      3.64582530	     -2.81666834	     18.54729359	     35.06982473	    -32.03079943	     -1.38084964	      4.54814711
      0.65000000	     23.26879676	      0.97612033	     -0.86874370	     -0.70244070	      0.95419950	      0.01450349	    -45.17639723	      0.81028301	    -10.39234882	     -2.50010567	     13.11617754	      9.49973109	     17.82588525	     -7.17985190	      3.57633581	    -18.92845361	      3.02887319	     -3.38576102	     17.51849718	     36.61105430	    -31.95930236	     -1.54833292	      4.48649298
      0.65500000	     23.32500207	      1.12231376	     -1.06823043	     -0.69625405	      0.95395654	      0.01427258	    -45.29958737	      0.46023047	    -10.23439394	     -3.10536394	     12.99951182	      9.37586364	     17.91014909	     -7.22056486	      3.74657496	    -18.96703730	      2.36921867	     -3.77826737	     16.86977622	     36.57662320	    -31.94206834	     -1.83704912	      4.48022062
      0.66000000	     23.29120039	      1.20375708	     -1.08628222	     -0.69032101	      0.95366459	      0.01370170	    -45.24200861	      0.27114437	    -10.18745500	     -3.84662414	     12.71853136	      9.24243570	     19.71296638	     -7.15471530	      3.82874028	    -18.50193001	      1.73108596	     -4.41685030	     15.47558365	     37.77709019	    -31.86649853	     -1.96061202	      4.35916764
      0.66500000	     23.34923133	      1.33434218	     -1.23095592	     -0.68424143	      0.95357794	      0.01334117	    -45.29899460	     -0.03706626	     -9.99087330	     -4.55834028	     12.52035078	      9.05246519	     19.93699945	     -7.20400168	      3.97781372	    -18.33369054	      1.05794175	     -4.90048305	     14.47113042	     37.75822127	    -31.86848758	     -2.20270264	      4.30198110
      0.67000000	     23.31087211	      1.50286105	     -1.24249614	     -0.67816808	      0.95342197	      0.01276321	    -45.19017972	     -0.29208080	    -10.05261790	     -5.38658580	     12.10636769	      8.81784490	     21.98752188	     -7.11025406	      4.14019095	    -17.92951400	      0.30514453	     -5.37445394	     13.29045965	     38.73871406	    -31.77357684	     -2.41776641	      4.13470189
      0.67500000	     23.27630735	      1.60226552	     -1.34247694	     -0.67215888	      0.95340539	      0.01231517	    -45.04814155	     -0.55388939	     -9.82242951	     -6.26304336	     11.85341137	      8.60397661	     22.27257898	     -7.01573973	      4.23448596	    -17.67435160	     -0.48721908	     -5.74334895	     12.24446231	     38.68787141	    -31.68812145	     -2.60653320	      4.09947094
      0.68000000	     23.21670538	      1.74812731	     -1.35812830	     -0.66615101	      0.95339242	      0.01170936	    -44.83014255	     -0.80271797	     -9.76026850	     -7.24392788	     11.54849388	      8.38215617	     22.86586834	     -6.88326659	      4.36896940	    -17.26054520	     -1.31209230	     -6.01569108	     11.13094878	     38.68855323	    -31.58171895	     -2.79781771	      3.94741869
      0.68500000	     23.21040039	      1.95653290	     -1.36902008	     -0.66002486	      0.95351299	      0.01112310	    -44.67105329	     -1.09523702	     -9.77730441	     -8.19589919	     10.84065263	      8.00949966	     25.99389127	     -6.82281568	      4.57001311	    -16.90446766	     -2.13132423	     -6.29675598	     10.13180705	     39.15102839	    -31.52023654	     -3.05701243	      3.71032418
      0.69000000	     23.13106191	      2.09821645	     -1.37179278	     -0.65398573	      0.95363491	      0.01049193	    -44.34087818	     -1.33711675	     -9.69998343	     -9.32674806	     10.34618306	      7.63780840	     26.83765756	     -6.67744742	      4.69636180	    -16.46956854	     -2.98053950	     -6.31815680	      9.19494643	     39.02347678	    -31.39153499	     -3.24032011	      3.57441344
      0.69500000	     23.02047986	      2.23292481	     -1.33951878	     -0.64797676	      0.95379575	      0.00979940	    -43.93855485	     -1.55767227	     -9.62565558	    -10.51626747	      9.76648689	      7.37539778	     27.74018214	     -6.46897677	      4.80588265	    -16.04182798	     -3.89881439	     -6.33253903	      8.29940182	     38.79336920	    -31.23700899	     -3.39858211	      3.38837083
      0.70000000	     22.98700674	      2.42431687	     -1.39268670	     -0.64187164	      0.95410209	      0.00919537	    -43.56008911	     -1.89133827	     -9.59105427	    -11.79712199	      8.96675472	      6.91104275	     30.80311261	     -6.41299901	      5.00098121	    -15.72232495	     -4.70364819	     -6.24598816	      7.64581239	     38.05569314	    -31.14816543	     -3.65317280	      3.26323919
      0.70500000	     22.92407545	      2.58795734	     -1.33239071	     -0.63587105	      0.95439757	      0.00844541	    -43.11117013	     -2.12654858	     -9.58315600	    -13.15756775	      8.26879939	      6.51459308	     31.98284350	     -6.28458671	      5.14709173	    -15.24000626	     -5.60025831	     -5.96515421	      6.95047800	     37.51281487	    -31.04869259	     -3.82795786	      3.03745950
      0.71000000	     22.82831613	      2.75303867	     -1.37494446	     -0.62977341	      0.95474293	      0.00779219	    -42.54983704	     -2.45159538	     -9.52266992	    -14.63193623	      7.33268028	      6.10536368	     34.44813295	     -6.18053253	      5.31562205	    -14.92759022	     -6.39558065	     -5.65818712	      6.53563243	     36.35625028	    -30.89558632	     -4.04855079	      2.93748911
      0.71500000	     22.76169918	      2.94621234	     -1.35129674	     -0.62371275	      0.95511909	      0.00703387	    -41.98239854	     -2.76293693	     -9.55405129	    -16.18183620	      6.43103381	      5.69662343	     36.11884540	     -6.11935318	      5.51535804	    -14.48964879	     -7.17715935	     -5.20878826	      6.08776158	     35.37611729	    -30.78276711	     -4.26457522	      2.74274942
      0.72000000	     22.67512557	      3.11908808	     -1.39747003	     -0.61761307	      0.95555006	      0.00635627	    -41.32925097	     -3.11781249	     -9.51466015	    -17.81001872	      5.31910733	      5.31815476	     38.31892415	     -6.06602876	      5.70098629	    -14.22181628	     -7.91422503	     -4.76096158	      5.87464419	     34.06059865	    -30.63824091	     -4.48961498	      2.63805685
      0.72500000	     22.55670371	      3.27520090	     -1.40605491	     -0.61158022	      0.95594446	      0.00559905	    -40.57791886	     -3.44859548	     -9.48001911	    -19.55593546	      4.30956251	      5.10606799	     38.99515690	     -6.00521706	      5.87639934	    -13.84555711	     -8.58918324	     -4.26195781	      5.55547188	     33.63235607	    -30.46924439	     -4.67834832	      2.51383503
      0.73000000	     22.56256268	      3.55547329	     -1.45831995	     -0.60541408	      0.95649385	      0.00489274	    -39.95843575	     -3.92598031	     -9.60179942	    -21.26659136	      2.89045186	      4.60787589	     42.16687235	     -6.15016706	      6.20307696	    -13.56909081	     -9.14593075	     -3.71092386	      5.47570023	     31.75672639	    -30.41771700	     -5.01302468	      2.31812797
      0.73500000	     22.49325198	      3.76414657	     -1.55291561	     -0.59929301	      0.95700662	      0.00424231	    -39.17860463	     -4.37880682	     -9.56456592	    -23.08107026	      1.49275086	      4.25574462	     43.99405485	     -6.24325851	      6.45819711	    -13.35974201	     -9.63884389	     -3.15297762	      5.47610400	     30.30320586	    -30.28228341	     -5.29285810	      2.23398602
      0.74000000	     22.44253173	      3.98331834	     -1.75059701	     -0.59321792	      0.95754888	      0.00369446	    -38.33152184	     -4.92400843	     -9.45206327	    -25.02563931	      0.23752839	      4.11962718	     44.31921683	     -6.40180366	      6.74975884	    -13.28336940	    -10.01430206	     -2.78984814	      5.33909842	     30.04123026	    -30.16270784	     -5.62508994	      2.26383903
